<?xml version="1.0" standalone="no"?>
<!DOCTYPE svg PUBLIC "-//W3C//DTD SVG 20010904//EN"
 "http://www.w3.org/TR/2001/REC-SVG-20010904/DTD/svg10.dtd">
<svg version="1.0" xmlns="http://www.w3.org/2000/svg"
 width="500.000000pt" height="500.000000pt" viewBox="0 0 500.000000 500.000000"
 preserveAspectRatio="xMidYMid meet">
<metadata>
Created by potrace 1.16, written by Peter Selinger 2001-2019
</metadata>
<g transform="translate(0.000000,500.000000) scale(0.100000,-0.100000)"
fill="#000000" stroke="none">
<path d="M915 3390 c-245 -25 -443 -108 -580 -245 -114 -113 -153 -225 -135
-382 32 -284 309 -487 717 -525 469 -43 867 148 949 457 18 67 18 200 -1 263
-33 111 -141 229 -282 308 -170 96 -444 147 -668 124z m369 -52 c55 -10 134
-32 175 -48 83 -32 184 -89 185 -105 2 -18 -117 -46 -194 -46 -75 0 -99 6
-240 56 -64 23 -86 27 -155 23 -65 -3 -92 -10 -140 -35 -33 -17 -94 -38 -135
-47 -88 -19 -112 -16 -302 41 -15 4 -28 12 -29 18 -2 12 98 68 171 96 199 75
436 92 664 47z m-41 -186 c142 -58 260 -61 390 -12 48 19 52 19 71 2 46 -40
78 -81 106 -136 47 -92 44 -97 -53 -123 -45 -11 -124 -37 -175 -56 l-92 -34
-127 110 c-195 167 -238 197 -285 197 -47 0 -63 -8 -146 -72 -49 -37 -71 -48
-100 -48 -74 0 -73 13 3 91 96 98 146 121 250 116 60 -3 99 -11 158 -35z
m-715 -21 c148 -45 200 -48 288 -14 12 4 1 -15 -29 -50 -53 -61 -56 -84 -17
-104 52 -26 103 -17 168 31 135 100 150 99 293 -21 259 -216 292 -255 240
-283 -35 -18 -52 -11 -121 50 -92 82 -109 76 -27 -9 79 -82 84 -101 30 -130
-34 -17 -41 -15 -103 45 -32 30 -61 51 -64 45 -4 -5 -2 -13 4 -16 6 -4 29 -29
51 -57 38 -48 39 -52 23 -69 -26 -29 -52 -23 -100 21 -39 36 -64 49 -64 35 0
-3 17 -23 37 -46 38 -42 35 -59 -12 -58 -46 1 -60 14 -57 53 4 47 -17 81 -63
97 -24 9 -35 19 -35 34 -1 42 -60 83 -101 70 -11 -4 -19 -2 -19 3 0 5 -16 18
-37 27 -28 14 -43 15 -68 8 -24 -8 -36 -7 -50 3 -23 17 -67 18 -82 3 -8 -8
-28 -3 -75 20 -34 17 -106 42 -158 57 -148 40 -145 39 -142 60 14 74 144 243
177 230 9 -3 59 -19 113 -35z m-137 -293 c125 -35 185 -66 181 -92 -8 -45 32
-96 77 -96 11 0 22 -9 26 -21 7 -22 60 -59 86 -59 9 0 24 -9 34 -20 10 -11 34
-23 54 -26 20 -4 49 -17 64 -30 31 -26 94 -33 114 -13 8 8 25 8 63 -2 46 -12
55 -11 82 4 16 9 39 17 49 17 27 0 61 19 77 42 7 10 21 18 30 18 29 0 81 38
88 65 4 17 13 25 29 25 12 0 35 10 50 21 22 18 26 28 23 60 l-4 39 83 30 c73
26 228 70 249 70 4 0 4 -27 1 -61 -7 -85 -48 -161 -126 -240 -146 -146 -355
-225 -624 -236 -170 -7 -286 7 -426 53 -134 44 -216 90 -300 170 -90 84 -132
163 -139 256 l-5 69 29 -6 c16 -4 77 -20 135 -37z m302 -78 c13 -19 15 -19 46
-4 38 19 80 7 88 -26 6 -23 5 -23 37 -9 20 10 30 9 51 -5 20 -13 25 -25 25
-56 0 -38 1 -39 29 -34 56 12 94 -64 54 -108 -33 -36 -113 -12 -113 34 0 16
-3 17 -21 8 -29 -16 -68 -4 -80 24 -9 19 -19 24 -46 23 -39 -1 -63 21 -63 60
0 20 -4 22 -30 16 -33 -6 -70 17 -70 45 0 45 67 68 93 32z"/>
<path d="M4337 3342 c-12 -13 -17 -37 -17 -82 l0 -63 -25 23 c-16 15 -40 24
-72 27 -87 8 -150 -57 -160 -166 -10 -108 33 -181 118 -201 93 -23 176 6 210
72 17 33 19 60 19 223 l0 185 -28 0 c-16 0 -36 -8 -45 -18z m-54 -192 c45 -35
48 -139 6 -181 -29 -29 -83 -25 -109 9 -19 23 -21 37 -18 91 3 52 8 67 27 82
30 25 62 24 94 -1z"/>
<path d="M2223 3234 c-62 -31 -77 -72 -81 -221 l-4 -133 46 0 46 0 0 123 c0
139 8 157 68 157 55 0 62 -17 62 -156 l0 -124 45 0 45 0 0 124 c0 140 7 156
65 156 55 0 65 -25 65 -162 l0 -118 40 0 40 0 0 133 c0 109 -3 138 -18 166
-37 70 -137 93 -204 47 l-36 -24 -20 21 c-28 28 -115 34 -159 11z"/>
<path d="M2805 3236 c-93 -40 -130 -174 -79 -281 32 -67 157 -105 237 -71 32
13 87 68 87 87 0 16 -96 11 -110 -6 -7 -9 -29 -15 -54 -15 -48 0 -86 30 -86
68 0 21 3 22 130 22 l130 0 0 38 c0 61 -38 123 -90 150 -50 25 -118 28 -165 8z"/>
<path d="M3200 3228 c-25 -13 -55 -38 -67 -57 -21 -31 -23 -46 -23 -162 l0
-129 45 0 45 0 0 113 c0 132 9 152 70 162 40 7 40 7 40 51 0 43 -1 44 -33 44
-18 0 -53 -10 -77 -22z"/>
<path d="M3424 3231 c-54 -25 -84 -75 -91 -151 -9 -100 29 -173 106 -199 94
-31 193 7 227 86 8 18 14 35 14 38 0 3 -22 5 -49 5 -45 0 -51 -3 -63 -27 -15
-31 -62 -42 -97 -24 -45 24 -52 150 -10 192 31 31 83 25 109 -11 17 -24 28
-30 60 -30 49 0 56 12 35 61 -33 72 -150 101 -241 60z"/>
<path d="M3793 3235 c-32 -14 -56 -42 -68 -82 -6 -22 -3 -23 39 -23 35 0 48 5
56 19 13 25 42 34 79 26 62 -13 36 -75 -31 -75 -90 0 -158 -52 -158 -119 0
-90 89 -132 215 -100 24 6 55 24 72 41 27 28 28 34 31 139 4 125 -5 150 -63
175 -43 18 -130 17 -172 -1z"/>
<path d="M4532 3233 c-105 -51 -123 -224 -33 -314 94 -94 267 -46 301 83 24
88 -17 200 -84 232 -44 21 -141 21 -184 -1z m122 -63 c65 -25 77 -161 17 -207
-17 -13 -60 -17 -86 -7 -25 10 -45 59 -45 111 0 53 19 89 54 103 28 12 31 12
60 0z"/>
<path d="M2890 2790 c-19 -19 -20 -33 -20 -240 l0 -220 45 0 45 0 0 240 0 240
-25 0 c-14 0 -34 -9 -45 -20z"/>
<path d="M3645 2691 c-47 -12 -72 -28 -102 -68 -27 -35 -28 -42 -32 -165 l-3
-128 45 0 45 0 4 116 c3 107 5 117 27 135 13 10 38 19 57 19 l34 0 0 50 c0 55
-5 58 -75 41z"/>
<path d="M3850 2689 c-143 -42 -164 -277 -31 -346 78 -41 189 -22 232 39 12
16 20 31 18 33 -11 10 -90 8 -101 -3 -7 -7 -31 -12 -54 -12 -46 0 -78 21 -89
58 l-6 22 132 0 131 0 -4 58 c-4 65 -32 113 -76 136 -38 20 -111 27 -152 15z"/>
<path d="M3030 2510 l0 -180 50 0 50 0 0 180 0 180 -50 0 -50 0 0 -180z"/>
<path d="M3160 2686 c0 -3 23 -69 51 -148 28 -79 56 -158 62 -176 11 -32 13
-33 61 -30 l49 3 63 175 62 175 -40 3 c-26 2 -46 -2 -55 -11 -8 -8 -30 -66
-48 -128 -18 -63 -35 -107 -38 -99 -8 20 -67 229 -67 235 0 3 -22 5 -50 5 -27
0 -50 -2 -50 -4z"/>
</g>
</svg>
