<?xml version="1.0" standalone="no"?>
<!DOCTYPE svg PUBLIC "-//W3C//DTD SVG 20010904//EN"
 "http://www.w3.org/TR/2001/REC-SVG-20010904/DTD/svg10.dtd">
<svg version="1.0" xmlns="http://www.w3.org/2000/svg"
 width="500.000000pt" height="500.000000pt" viewBox="0 0 500.000000 500.000000"
 preserveAspectRatio="xMidYMid meet">
<metadata>
Created by potrace 1.16, written by Peter Selinger 2001-2019
</metadata>
<g transform="translate(0.000000,500.000000) scale(0.100000,-0.100000)"
fill="#000000" stroke="none">
<path d="M2940 3322 c-50 -40 -26 -143 59 -257 21 -27 43 -61 50 -74 15 -27
24 -18 -99 -93 -94 -56 -144 -99 -166 -140 -21 -40 -17 -57 20 -94 28 -28 42
-34 75 -34 34 0 58 12 151 75 61 42 116 78 124 81 7 3 28 -18 51 -53 84 -129
146 -202 182 -214 62 -20 123 11 123 63 0 27 -43 110 -132 257 -32 52 -37 66
-26 80 9 12 8 12 -7 -2 -16 -14 -17 -20 -8 -35 7 -9 34 -55 60 -102 26 -47 60
-105 75 -129 32 -51 35 -82 12 -105 -18 -19 -73 -21 -109 -4 -28 13 -128 140
-173 220 -15 27 -30 48 -34 48 -4 0 -58 -35 -120 -77 -137 -93 -161 -102 -212
-78 -60 29 -61 90 -3 145 17 17 77 59 131 93 55 34 101 67 103 73 2 6 -12 33
-32 60 -50 69 -93 161 -100 216 -6 42 -5 48 19 63 24 16 30 16 64 3 41 -15
118 -103 157 -178 47 -91 44 -90 116 -32 71 58 186 122 217 122 27 0 62 -46
62 -81 0 -47 -19 -74 -75 -108 -29 -18 -61 -41 -72 -53 -10 -11 12 -1 50 22
87 55 107 80 107 137 0 36 -6 50 -29 74 -16 16 -36 29 -43 29 -31 0 -176 -80
-225 -124 l-53 -48 -17 33 c-29 52 -136 191 -163 211 -40 29 -82 33 -110 10z"/>
<path d="M695 3278 c-74 -26 -109 -85 -103 -176 4 -59 7 -67 40 -97 25 -24 53
-37 94 -45 131 -27 154 -41 154 -94 0 -48 -30 -71 -92 -71 -40 0 -53 5 -69 24
-10 13 -19 36 -19 52 0 29 0 29 -61 29 l-62 0 7 -42 c18 -113 78 -160 205
-160 133 0 199 51 208 160 8 106 -44 159 -182 184 -47 8 -77 19 -92 35 -41 40
-25 94 32 113 62 20 111 -9 121 -72 l7 -38 53 0 54 0 0 42 c0 64 -33 123 -84
147 -47 23 -157 28 -211 9z"/>
<path d="M1740 3267 c-75 -40 -81 -62 -78 -284 3 -175 5 -194 24 -219 50 -68
182 -89 264 -43 69 39 80 76 80 274 0 202 -11 239 -84 274 -59 29 -149 28
-206 -2z m163 -99 c15 -17 17 -42 17 -175 0 -150 -1 -155 -25 -178 -30 -30
-64 -32 -99 -4 l-26 20 0 163 c0 143 2 165 18 178 37 33 85 32 115 -4z"/>
<path d="M2265 3276 c-16 -7 -38 -23 -48 -34 -22 -24 -46 -87 -47 -119 0 -21
4 -23 59 -23 60 0 60 0 63 32 2 20 13 38 29 51 24 17 31 18 64 7 41 -14 61
-46 51 -84 -10 -42 -33 -56 -92 -56 l-54 0 0 -50 0 -50 55 0 c67 0 95 -22 95
-75 0 -52 -39 -89 -87 -82 -44 8 -60 21 -68 58 -6 28 -9 29 -61 29 -52 0 -54
-1 -54 -27 0 -47 37 -108 80 -132 55 -31 152 -32 212 -2 66 33 83 63 83 148 0
67 -2 74 -32 105 -32 33 -32 34 -12 46 27 17 49 71 49 119 0 93 -74 153 -189
153 -36 -1 -79 -7 -96 -14z"/>
<path d="M1140 2991 l0 -291 55 0 54 0 3 108 3 107 85 5 c143 9 185 51 185
182 0 83 -12 110 -69 152 -24 19 -45 21 -172 24 l-144 3 0 -290z m250 174 c15
-13 20 -31 20 -65 0 -63 -22 -82 -100 -88 l-60 -4 0 84 c0 47 3 88 8 92 13 14
111 0 132 -19z"/>
</g>
</svg>
