<?xml version="1.0" encoding="UTF-8"?><svg xmlns="http://www.w3.org/2000/svg" xmlns:xlink="http://www.w3.org/1999/xlink" height="468.9" preserveAspectRatio="xMidYMid meet" version="1.0" viewBox="-8.6 -8.0 473.4 468.9" width="473.4" zoomAndPan="magnify"><g id="change1_1"><path d="M464.56,156.54c0.25,55.14-64.85,80.68-64.85,80.68l-38.3-72.4l19.91-17.99l-80.23-41.9l-9.23-4.82 l-22.69-11.85l15.13-39.98c0,0,8.1,2.39,20.87,6.69c2.74,0.92,5.7,1.93,8.84,3.02C365.14,75.79,464.37,115.6,464.56,156.54z M154.69,48.28c0,0-144.86,55.1-154.05,111.49s83.49,114.21,83.49,114.21L99.45,181l-27.3-23.93l89.4-70.58L154.69,48.28z" fill="#FFD0B8"/></g><g id="change2_1"><path d="M422.12,304.12l-27.34,17.98c-28.17,18.52-46.65,48.63-50.39,82.15l-6.34,56.66H93.32v-81.79 c0-19.58-8.52-38.19-23.35-50.98L41.1,303.23c-5.43-4.67-7.32-12.26-4.72-18.94l10.84-25.69l38-90.08l64.35,18.39l50.35,14.39 l33.19,9.49l32.51-11.65l15.3-5.48l80.49-28.84c0,0,41.7,15.2,63.43,87.33c2.67,8.86,5.04,18.59,6.99,29.25 C433.45,290.24,429.62,299.19,422.12,304.12z" fill="#FFF8F8"/></g><g id="change3_1"><path d="M230.86,55.47c0,3.91-3.28,7.57-8.98,10.69c-11.01,6.04-31.05,10.08-53.96,10.08 c-34.76,0-62.94-9.3-62.94-20.77c0-2.15,0.99-4.23,2.82-6.17c0.64-0.68,1.39-1.35,2.23-2c2-1.54,4.27-2.69,6.64-3.55 c8.51-3.07,21.9-6.53,42.3-8.85c2.92-0.13,5.92-0.21,8.96-0.21C202.68,34.69,230.86,43.99,230.86,55.47z M243.19,110.28 c0,0-20.28,67.11,9.31,77.91c29.59,10.79,38.8-10.25,38.8-10.25c24.62,9.66,41.89-18.6,18.53-28.1c-23.36-9.5-25.02-26.5-25.02-26.5 L243.19,110.28z" fill="#11084E"/></g><g id="change1_2"><path d="M267.19,82.28v35.7c0,7.32-1.26,14.34-3.6,20.85c-2.4,6.75-5.95,12.96-10.4,18.4 c-4.58,5.6-10.13,10.38-16.38,14.1c-4.32,2.56-8.97,4.62-13.89,6.07c-0.63,0.19-1.26,0.37-1.9,0.54c-3,0.79-6.09,1.37-9.25,1.69 c-0.63,0.07-1.26,0.13-1.9,0.17c-1.54,0.12-3.1,0.18-4.67,0.18c-1.14,0-2.27-0.03-3.38-0.1c-0.64-0.02-1.28-0.07-1.9-0.13 c-3.11-0.26-6.16-0.75-9.12-1.45c-0.63-0.15-1.27-0.31-1.9-0.49c-1.41-0.38-2.81-0.81-4.18-1.3c-1.48-0.51-2.93-1.08-4.35-1.71 c-0.63-0.27-1.27-0.57-1.89-0.87c-2.82-1.34-5.5-2.88-8.06-4.62c-0.65-0.43-1.27-0.88-1.9-1.35c-3.3-2.42-6.36-5.17-9.12-8.19 c-0.65-0.71-1.28-1.43-1.89-2.17c-8.93-10.74-14.31-24.55-14.31-39.62v-35.7c0-9.58,2.18-18.65,6.07-26.76 c2.8-5.85,6.5-11.19,10.91-15.85c11.29-11.93,27.29-19.37,45.02-19.37c17.12,0,32.62,6.94,43.84,18.15 C260.26,49.67,267.19,65.16,267.19,82.28z" fill="#FFD0B8"/></g><g id="change3_2"><path d="M284.73,56.62c16.84,30.98-3.98,52.83-3.98,52.83l-39.89,0.84c-4.26,0.09-7.61-3.63-7.07-7.86l2.52-19.72 c-35.34-13.55-18.72-68.41-18.72-68.41S267.89,25.64,284.73,56.62z" fill="#11084E"/></g><g id="change4_1"><path d="M422.12,304.12l-27.34,17.98c-28.17,18.52-46.65,48.63-50.39,82.15l-6.34,56.66H295l12.52-94.29 c3.1-23.38,15.94-44.37,35.34-57.79l81.98-56.68c2.67,8.86,5.04,18.59,6.99,29.25C433.45,290.24,429.62,299.19,422.12,304.12z M131.42,460.91l-7.24-108.56c-1.12-16.85-8.79-32.59-21.35-43.86L47.22,258.6l-10.84,25.69c-2.6,6.68-0.71,14.27,4.72,18.94 l28.87,24.91c14.83,12.79,23.35,31.4,23.35,50.98v81.79H131.42z M149.57,186.91c6.08,11.8,21.49,34.93,50.35,39.18V201.3 L149.57,186.91z M265.62,199.14c1.58,5.99,3.58,10.63,5.76,8.88c2.67-2.14,6.47-8.59,9.54-14.36L265.62,199.14z" fill="#FFE1E8"/></g><g id="change1_3"><path d="M294.03,115.45c-1.06,13.52-13.64,27.1-28.01,26.67l9.31,61.09c-30.48,41.07-88.87,19.27-88.87,19.27 l-1.02-26.87l-0.2-5.29l-0.38-10.08l-0.14-3.74l-0.64-16.74l68.35-18l5.45-1.44c-11.05-4.66-18.43-17.57-17.52-29.11 c0.61-7.75,4.92-14.38,11.19-18.52c4.94-3.25,11.09-4.96,17.63-4.45c6.36,0.49,12.04,3.03,16.37,6.86 C291.29,100.18,294.64,107.54,294.03,115.45z" fill="#FFD0B8"/></g><g id="change3_3"><path d="M190.67,93.35c0-3.79,3.07-6.86,6.86-6.86s6.86,3.07,6.86,6.86c0,3.79-3.07,6.86-6.86,6.86 S190.67,97.13,190.67,93.35z M168.41,93.35c0-3.79-3.07-6.86-6.86-6.86s-6.86,3.07-6.86,6.86c0,3.79,3.07,6.86,6.86,6.86 S168.41,97.13,168.41,93.35z M211.77,150.79c0-0.52-0.42-0.95-0.95-0.95c-0.52,0-0.95,0.43-0.95,0.95v29.01 c0.64-0.04,1.27-0.09,1.9-0.17V150.79z M179.42,149.84c-0.52,0-0.95,0.43-0.95,0.95v23.14c0.63,0.3,1.26,0.6,1.9,0.87v-24.01 C180.37,150.27,179.94,149.84,179.42,149.84z M169.47,149.84c-0.52,0-0.95,0.43-0.95,0.95v17.17c0.63,0.47,1.25,0.92,1.9,1.36 v-18.52C170.42,150.27,169.99,149.84,169.47,149.84z M158.45,149.84c-0.52,0-0.95,0.43-0.95,0.95v6.81c0.62,0.74,1.24,1.46,1.9,2.17 v-8.98C159.4,150.27,158.98,149.84,158.45,149.84z M188.43,190.59c1.12,0.06,2.24,0.09,3.38,0.09c1.58,0,3.13-0.06,4.68-0.18 c0.63-0.04,1.27-0.09,1.89-0.17c3.17-0.32,6.26-0.9,9.25-1.69c0.64-0.17,1.27-0.35,1.9-0.54c10.54-3.13,19.91-8.99,27.28-16.77 c-4.32,2.56-8.97,4.62-13.89,6.07c-0.46,0.14-0.92,0.26-1.38,0.39c0.46-0.13,0.92-0.25,1.37-0.39v-26.61c0-0.52-0.43-0.95-0.95-0.95 c-0.53,0-0.95,0.43-0.95,0.95v27.15c0,0,0,0,0,0c-3,0.79-6.09,1.37-9.25,1.69c-0.63,0.07-1.26,0.13-1.9,0.17 c-1.54,0.12-3.1,0.18-4.67,0.18c-1.14,0-2.27-0.03-3.38-0.1c0,0,0,0,0,0v-29.09c0-0.52-0.42-0.95-0.95-0.95 c-0.52,0-0.95,0.43-0.95,0.95v28.96c-3.11-0.26-6.16-0.75-9.12-1.45v-27.51c0-0.52-0.42-0.95-0.95-0.95c-0.52,0-0.95,0.43-0.95,0.95 v27.02c0.55,0.16,1.1,0.3,1.65,0.43c-0.55-0.13-1.11-0.27-1.66-0.43c-1.41-0.38-2.81-0.81-4.18-1.3l0.14,3.74l0.38,10.08 c0.43,0.05,0.86,0.09,1.29,0.12C187.16,190.51,187.79,190.56,188.43,190.59z M271.44,99.13c-5.66,0-10.27,4.59-10.31,10.24 c-0.12,0.88-0.94,7.99,4,11.42c2.9,2.01,4.35,5.41,3.69,8.66l-0.1,0.52c-0.11,0.54,0.24,1.07,0.78,1.18 c0.07,0.01,0.13,0.02,0.2,0.02c0.47,0,0.88-0.33,0.98-0.8l0.1-0.52c0.82-4.03-0.96-8.23-4.51-10.7c-4.12-2.87-3.16-9.49-3.15-9.55 c0.01-0.05,0.01-0.1,0.01-0.15c0-4.58,3.73-8.31,8.31-8.31s8.31,3.73,8.31,8.31c0,0.55,0.45,1,1,1s1-0.45,1-1 C281.75,103.76,277.13,99.13,271.44,99.13z M173.59,114.5l4.85,2.79c0.16,0.09,0.33,0.13,0.5,0.13c0.35,0,0.68-0.18,0.87-0.5 c0.27-0.48,0.11-1.09-0.37-1.37l-4.85-2.79c-1.59-0.91-2.71-2.39-3.17-4.16c-0.46-1.77-0.18-3.61,0.76-5.17l4.53-7.47 c0.29-0.47,0.14-1.09-0.34-1.37c-0.47-0.29-1.09-0.14-1.37,0.34l-4.53,7.47c-1.23,2.03-1.58,4.41-0.99,6.71 C170.07,111.4,171.53,113.32,173.59,114.5z M190.73,123.93c-0.26-0.48-0.87-0.66-1.36-0.4c-0.12,0.07-12.44,6.64-22.36,0.04 c-0.46-0.31-1.08-0.18-1.39,0.28c-0.31,0.46-0.18,1.08,0.28,1.39c3.74,2.48,7.71,3.31,11.34,3.31c7,0,12.73-3.07,13.09-3.27 C190.82,125.02,191,124.41,190.73,123.93z M143.67,73.64c-0.55,0-1,0.45-1,1v25.97c0,0.55,0.45,1,1,1s1-0.45,1-1V74.64 C144.67,74.09,144.22,73.64,143.67,73.64z M393.35,137.72c-0.34-0.44-0.97-0.52-1.4-0.18l-12.87,9.97c-0.44,0.34-0.52,0.97-0.18,1.4 c0.2,0.25,0.49,0.39,0.79,0.39c0.21,0,0.43-0.07,0.61-0.21l12.87-9.97C393.6,138.79,393.68,138.16,393.35,137.72z M64.86,150.01 c-0.42-0.36-1.05-0.3-1.41,0.12c-0.36,0.42-0.3,1.05,0.12,1.41l21,17.74c0.19,0.16,0.42,0.24,0.65,0.24c0.28,0,0.57-0.12,0.76-0.35 c0.36-0.42,0.3-1.05-0.12-1.41L64.86,150.01z M274.52,202.62c-29.68,39.98-87.14,19.14-87.72,18.93c-0.52-0.19-1.09,0.07-1.29,0.59 c-0.19,0.52,0.07,1.09,0.59,1.29c0.15,0.05,14.97,5.51,33.34,5.83c0.56,0.01,1.11,0.01,1.66,0.01c23.65,0,42.65-8.78,55.02-25.45 c0.33-0.44,0.24-1.07-0.21-1.4C275.48,202.09,274.85,202.18,274.52,202.62z M305.17,54.97c-6.17,9.27-13.59,24.71-13.31,45.14 l9.23,4.82c-1.78-22.35,6.89-38.57,12.92-46.94C310.87,56.9,307.91,55.89,305.17,54.97z" fill="#11084E"/></g><g id="change5_1"><path d="M290.54,72.7c0,0-17.53,0.19-41.05-4.58c-9.1-1.85-18.39-2.55-27.61-1.95c-3.19,0.21-6.36,0.57-9.52,1.08 c-8.5,1.39-19.75,1.73-31.99-1.97c-24.2-7.31-53.9-19.03-72.57-15.97c0.64-0.68,1.39-1.35,2.23-2c2-1.54,4.3-2.61,6.64-3.55 c18.49-7.39,40.18-10.27,41.06-10.37c0,0,18.18-41.36,75.45-32.01C290.46,10.73,292.8,59.3,290.54,72.7z M97.27,451.34 c43.56-21.29,82.43-48.25,115.53-80.14c26.51-25.54,49.39-54.28,68-85.41c31.8-53.18,40.08-94.6,40.42-96.34 c0.94-4.88-2.24-9.59-7.11-10.54c-4.88-0.95-9.6,2.23-10.56,7.11c-0.08,0.4-8.21,40.63-38.61,91.23 c-27.98,46.57-81.16,111.78-175.57,157.92c-4.47,2.18-6.32,7.57-4.13,12.04c1.56,3.19,4.76,5.05,8.09,5.05 C94.65,452.26,96,451.96,97.27,451.34z" fill="#02AB78"/></g><g id="change2_2"><path d="M194.5,30.14c-1.76,5.73-7.07,9.19-11.86,7.72c-4.79-1.47-7.24-7.31-5.48-13.05 c1.76-5.73,7.07-9.19,11.86-7.72C193.81,18.57,196.27,24.41,194.5,30.14z" fill="#FFF8F8"/></g></svg>